# xmcd CD database file
#
# Track frame offsets:
#	150
#	24581
#	45969
#	67955
#	83893
#	106449
#	126687
#	148191
#	181273
#	205747
#	224339
#	250823
#	271594
#	296605
#	318608
#	336683
#
# Disc length: 4635 seconds
#
# Revision: 0
# Processed by: cddbd v1.4PL0 Copyright (c) Steve Scherf et al.
# Submitted via: CDex 1.40Beta9
#
DISCID=fa121910
DTITLE=Zucchero Fornaciari - Greatest hits
DYEAR=1900
DGENRE=Blues
TTITLE0=Menta e Rosmarino
TTITLE1=Eppure non t'amo
TTITLE2=Niente da perdere
TTITLE3=Donne
TTITLE4=Rispetto
TTITLE5=Senza una donna
TTITLE6=Con le mani
TTITLE7=Madre dolcissima
TTITLE8=Overdose d'amore
TTITLE9=Diavolo in me
TTITLE10=Diamante
TTITLE11=A Wonderful World
TTITLE12=Il Volo
TTITLE13=Così Modesto
TTITLE14=Colpa di chi
TTITLE15=Hai scelto me
EXTD=ID3G: 0
EXTT0=
EXTT1=
EXTT2=
EXTT3=
EXTT4=
EXTT5=
EXTT6=
EXTT7=
EXTT8=
EXTT9=
EXTT10=
EXTT11=
EXTT12=
EXTT13=
EXTT14=
EXTT15=
PLAYORDER=
